<svg id="visual" viewBox="0 0 900 600" width="900" height="600" xmlns="http://www.w3.org/2000/svg" xmlns:xlink="http://www.w3.org/1999/xlink" version="1.1"><g stroke-width="1" stroke-linejoin="bevel"><path d="M437 291L502 266L460 210Z" fill="#297ea6" stroke="#297ea6"></path><path d="M437 291L473 371L502 266Z" fill="#081a28" stroke="#081a28"></path><path d="M460 210L335 234L437 291Z" fill="#297ea6" stroke="#297ea6"></path><path d="M437 291L414 396L473 371Z" fill="#297ea6" stroke="#297ea6"></path><path d="M375 167L335 234L460 210Z" fill="#081a28" stroke="#081a28"></path><path d="M473 371L574 318L502 266Z" fill="#297ea6" stroke="#297ea6"></path><path d="M502 266L596 173L460 210Z" fill="#00101c" stroke="#00101c"></path><path d="M335 234L324 313L437 291Z" fill="#277297" stroke="#277297"></path><path d="M324 313L414 396L437 291Z" fill="#081a28" stroke="#081a28"></path><path d="M574 318L596 173L502 266Z" fill="#205a7a" stroke="#205a7a"></path><path d="M460 210L416 86L375 167Z" fill="#19435d" stroke="#19435d"></path><path d="M467 63L416 86L460 210Z" fill="#081a28" stroke="#081a28"></path><path d="M375 167L296 122L335 234Z" fill="#00101c" stroke="#00101c"></path><path d="M473 371L598 372L574 318Z" fill="#081a28" stroke="#081a28"></path><path d="M574 318L670 232L596 173Z" fill="#19435d" stroke="#19435d"></path><path d="M505 531L598 372L473 371Z" fill="#081a28" stroke="#081a28"></path><path d="M596 173L467 63L460 210Z" fill="#277297" stroke="#277297"></path><path d="M679 71L602 102L596 173Z" fill="#1d4e6b" stroke="#1d4e6b"></path><path d="M596 173L602 102L467 63Z" fill="#112e42" stroke="#112e42"></path><path d="M367 0L296 122L416 86Z" fill="#19435d" stroke="#19435d"></path><path d="M416 86L296 122L375 167Z" fill="#15384f" stroke="#15384f"></path><path d="M184 326L278 372L324 313Z" fill="#246688" stroke="#246688"></path><path d="M702 285L670 232L574 318Z" fill="#297ea6" stroke="#297ea6"></path><path d="M184 326L324 313L335 234Z" fill="#1d4e6b" stroke="#1d4e6b"></path><path d="M324 313L278 372L414 396Z" fill="#297ea6" stroke="#297ea6"></path><path d="M322 477L420 468L414 396Z" fill="#15384f" stroke="#15384f"></path><path d="M414 396L420 468L473 371Z" fill="#277297" stroke="#277297"></path><path d="M598 372L702 285L574 318Z" fill="#246688" stroke="#246688"></path><path d="M670 232L679 71L596 173Z" fill="#1d4e6b" stroke="#1d4e6b"></path><path d="M296 122L222 172L335 234Z" fill="#081a28" stroke="#081a28"></path><path d="M278 372L322 477L414 396Z" fill="#297ea6" stroke="#297ea6"></path><path d="M602 102L536 0L467 63Z" fill="#277297" stroke="#277297"></path><path d="M467 63L367 0L416 86Z" fill="#297ea6" stroke="#297ea6"></path><path d="M536 0L367 0L467 63Z" fill="#297ea6" stroke="#297ea6"></path><path d="M296 122L215 99L222 172Z" fill="#00101c" stroke="#00101c"></path><path d="M404 600L505 531L420 468Z" fill="#297ea6" stroke="#297ea6"></path><path d="M420 468L505 531L473 371Z" fill="#205a7a" stroke="#205a7a"></path><path d="M598 372L695 428L702 285Z" fill="#15384f" stroke="#15384f"></path><path d="M828 175L679 71L670 232Z" fill="#277297" stroke="#277297"></path><path d="M602 102L593 0L536 0Z" fill="#0c2435" stroke="#0c2435"></path><path d="M222 172L184 326L335 234Z" fill="#00101c" stroke="#00101c"></path><path d="M278 372L197 386L322 477Z" fill="#15384f" stroke="#15384f"></path><path d="M679 71L593 0L602 102Z" fill="#081a28" stroke="#081a28"></path><path d="M315 0L215 99L296 122Z" fill="#205a7a" stroke="#205a7a"></path><path d="M222 172L81 288L184 326Z" fill="#297ea6" stroke="#297ea6"></path><path d="M367 0L315 0L296 122Z" fill="#112e42" stroke="#112e42"></path><path d="M627 501L695 428L598 372Z" fill="#00101c" stroke="#00101c"></path><path d="M184 326L197 386L278 372Z" fill="#081a28" stroke="#081a28"></path><path d="M505 531L627 501L598 372Z" fill="#246688" stroke="#246688"></path><path d="M806 86L688 0L679 71Z" fill="#277297" stroke="#277297"></path><path d="M679 71L688 0L593 0Z" fill="#246688" stroke="#246688"></path><path d="M736 600L707 494L627 501Z" fill="#277297" stroke="#277297"></path><path d="M627 501L707 494L695 428Z" fill="#1d4e6b" stroke="#1d4e6b"></path><path d="M834 328L828 175L702 285Z" fill="#246688" stroke="#246688"></path><path d="M200 0L139 117L215 99Z" fill="#081a28" stroke="#081a28"></path><path d="M215 99L139 117L222 172Z" fill="#081a28" stroke="#081a28"></path><path d="M81 288L139 391L184 326Z" fill="#0c2435" stroke="#0c2435"></path><path d="M184 326L139 391L197 386Z" fill="#112e42" stroke="#112e42"></path><path d="M197 386L221 535L322 477Z" fill="#19435d" stroke="#19435d"></path><path d="M307 600L404 600L322 477Z" fill="#00101c" stroke="#00101c"></path><path d="M322 477L404 600L420 468Z" fill="#246688" stroke="#246688"></path><path d="M505 531L591 600L627 501Z" fill="#112e42" stroke="#112e42"></path><path d="M404 600L523 600L505 531Z" fill="#246688" stroke="#246688"></path><path d="M315 0L200 0L215 99Z" fill="#19435d" stroke="#19435d"></path><path d="M132 477L221 535L197 386Z" fill="#15384f" stroke="#15384f"></path><path d="M523 600L591 600L505 531Z" fill="#205a7a" stroke="#205a7a"></path><path d="M834 328L702 285L820 393Z" fill="#112e42" stroke="#112e42"></path><path d="M702 285L828 175L670 232Z" fill="#00101c" stroke="#00101c"></path><path d="M221 535L307 600L322 477Z" fill="#15384f" stroke="#15384f"></path><path d="M72 184L81 288L222 172Z" fill="#15384f" stroke="#15384f"></path><path d="M820 393L702 285L695 428Z" fill="#19435d" stroke="#19435d"></path><path d="M828 175L806 86L679 71Z" fill="#246688" stroke="#246688"></path><path d="M805 529L820 393L707 494Z" fill="#19435d" stroke="#19435d"></path><path d="M707 494L820 393L695 428Z" fill="#297ea6" stroke="#297ea6"></path><path d="M0 213L72 184L0 90Z" fill="#19435d" stroke="#19435d"></path><path d="M139 117L72 184L222 172Z" fill="#15384f" stroke="#15384f"></path><path d="M0 415L132 477L139 391Z" fill="#112e42" stroke="#112e42"></path><path d="M139 391L132 477L197 386Z" fill="#1d4e6b" stroke="#1d4e6b"></path><path d="M221 535L179 600L307 600Z" fill="#205a7a" stroke="#205a7a"></path><path d="M900 0L814 0L806 86Z" fill="#1d4e6b" stroke="#1d4e6b"></path><path d="M806 86L814 0L688 0Z" fill="#1d4e6b" stroke="#1d4e6b"></path><path d="M834 328L900 273L828 175Z" fill="#081a28" stroke="#081a28"></path><path d="M828 175L900 122L806 86Z" fill="#081a28" stroke="#081a28"></path><path d="M900 391L900 273L834 328Z" fill="#112e42" stroke="#112e42"></path><path d="M736 600L805 529L707 494Z" fill="#19435d" stroke="#19435d"></path><path d="M820 393L900 391L834 328Z" fill="#081a28" stroke="#081a28"></path><path d="M900 273L900 207L828 175Z" fill="#081a28" stroke="#081a28"></path><path d="M591 600L736 600L627 501Z" fill="#246688" stroke="#246688"></path><path d="M132 477L179 600L221 535Z" fill="#277297" stroke="#277297"></path><path d="M900 207L900 122L828 175Z" fill="#00101c" stroke="#00101c"></path><path d="M81 288L0 415L139 391Z" fill="#15384f" stroke="#15384f"></path><path d="M132 477L74 600L179 600Z" fill="#19435d" stroke="#19435d"></path><path d="M0 213L0 271L81 288Z" fill="#19435d" stroke="#19435d"></path><path d="M0 213L81 288L72 184Z" fill="#205a7a" stroke="#205a7a"></path><path d="M900 538L900 391L820 393Z" fill="#246688" stroke="#246688"></path><path d="M0 90L72 184L139 117Z" fill="#297ea6" stroke="#297ea6"></path><path d="M200 0L74 0L139 117Z" fill="#15384f" stroke="#15384f"></path><path d="M736 600L776 600L805 529Z" fill="#112e42" stroke="#112e42"></path><path d="M805 529L900 538L820 393Z" fill="#246688" stroke="#246688"></path><path d="M0 271L0 415L81 288Z" fill="#277297" stroke="#277297"></path><path d="M74 0L0 90L139 117Z" fill="#246688" stroke="#246688"></path><path d="M900 122L900 0L806 86Z" fill="#205a7a" stroke="#205a7a"></path><path d="M0 415L0 488L132 477Z" fill="#19435d" stroke="#19435d"></path><path d="M0 488L74 600L132 477Z" fill="#246688" stroke="#246688"></path><path d="M900 600L900 538L805 529Z" fill="#1d4e6b" stroke="#1d4e6b"></path><path d="M74 0L0 0L0 90Z" fill="#00101c" stroke="#00101c"></path><path d="M776 600L900 600L805 529Z" fill="#297ea6" stroke="#297ea6"></path><path d="M0 488L0 600L74 600Z" fill="#205a7a" stroke="#205a7a"></path></g></svg>