<svg id="visual" viewBox="0 0 900 600" width="900" height="600" xmlns="http://www.w3.org/2000/svg" xmlns:xlink="http://www.w3.org/1999/xlink" version="1.1"><rect x="0" y="0" width="900" height="600" fill="#002233"></rect><path d="M0 457L21.5 467.2C43 477.3 86 497.7 128.8 489.3C171.7 481 214.3 444 257.2 421.2C300 398.3 343 389.7 385.8 391.8C428.7 394 471.3 407 514.2 430C557 453 600 486 642.8 481.3C685.7 476.7 728.3 434.3 771.2 422C814 409.7 857 427.3 878.5 436.2L900 445L900 601L878.5 601C857 601 814 601 771.2 601C728.3 601 685.7 601 642.8 601C600 601 557 601 514.2 601C471.3 601 428.7 601 385.8 601C343 601 300 601 257.2 601C214.3 601 171.7 601 128.8 601C86 601 43 601 21.5 601L0 601Z" fill="#0066FF" stroke-linecap="round" stroke-linejoin="miter"></path></svg>